<svg width="1000" height="1000" viewBox="0 0 1000 1000" fill="none"
    xmlns="http://www.w3.org/2000/svg">
    <rect width="1000" height="1000" fill="white" />
    <path
        d="M498.881 100C514.491 115.696 528.521 129.889 542.641 144.006C600.994 202.371 659.316 260.767 717.759 319.041C750.196 351.374 770.838 389.915 777.085 435.226C786.357 502.578 767.25 561.429 719.431 610.019C670.761 659.474 621.286 708.139 572.053 757.033C568.648 760.403 567.037 763.773 567.372 768.539C567.995 777.252 567.311 786.147 568.785 794.678C572.555 816.415 592.391 832.657 614.537 833.007C628.034 833.204 641.547 833.234 655.045 833.356C656.063 833.371 657.081 833.538 658.434 833.659C658.434 855.685 658.434 877.483 658.434 899.205C657.993 899.448 657.689 899.766 657.385 899.766C637.945 899.493 618.261 901.072 599.124 898.507C550.241 891.979 512.378 855.548 502.666 807.338C500.583 796.97 500.294 786.132 500.203 775.491C499.854 735.038 499.93 694.569 499.838 654.115C499.838 652.279 499.671 650.427 499.55 647.71C469.089 678.418 439.297 708.443 408.244 739.743C399.747 730.742 392.39 722.56 384.623 714.788C349.846 679.936 314.901 645.235 280.109 610.398C248.402 578.658 228.55 540.587 222.349 496.263C212.895 428.699 231.955 369.604 279.987 320.984C351.29 248.805 423.398 177.431 495.126 105.662C496.464 104.281 497.285 102.414 498.881 100ZM499.489 284.417C497.133 286.694 495.81 287.938 494.518 289.229C437.975 345.681 381.416 402.149 324.872 458.602C319.294 464.173 313.533 469.577 308.198 475.376C299.534 484.787 304.14 499.193 316.619 502.001C319.157 502.562 321.832 502.653 324.447 502.653C380.565 502.684 436.683 502.684 492.801 502.684C494.99 502.684 497.178 502.684 499.914 502.684C499.914 550.864 499.914 598.179 499.914 645.493C500.644 646.025 501.358 646.571 502.088 647.102C503 645.417 503.593 643.399 504.9 642.093C544.009 602.93 583.18 563.827 622.35 524.725C644.906 502.198 667.478 479.687 689.989 457.13C696.221 450.876 697.27 444.167 693.409 437.123C689.609 430.217 683.301 428.714 676.036 428.729C619.568 428.79 563.1 428.759 506.618 428.759C504.429 428.759 502.225 428.759 499.474 428.759C499.489 380.61 499.489 333.295 499.489 284.417Z"
        fill="url(#paint0_linear_1797_27316)" />
    <defs>
        <linearGradient id="paint0_linear_1797_27316" x1="219.993" y1="499.978" x2="779.343"
            y2="499.978" gradientUnits="userSpaceOnUse">
            <stop stop-color="#00A99D" />
            <stop offset="1" stop-color="#22B573" />
        </linearGradient>
    </defs>
</svg>